<?xml version="1.0" standalone="no"?>
<!DOCTYPE svg PUBLIC "-//W3C//DTD SVG 20010904//EN"
 "http://www.w3.org/TR/2001/REC-SVG-20010904/DTD/svg10.dtd">
<svg version="1.0" xmlns="http://www.w3.org/2000/svg"
 width="700.000000pt" height="700.000000pt" viewBox="0 0 700.000000 700.000000"
 preserveAspectRatio="xMidYMid meet">
<metadata>
Created by potrace 1.14, written by Peter Selinger 2001-2017
</metadata>
<g transform="translate(0.000000,700.000000) scale(0.100000,-0.100000)"
fill="#000000" stroke="none">
<path d="M1142 6257 c-1 -51 -8 -46 151 -111 220 -90 284 -160 315 -346 4 -19
7 -1137 7 -2485 0 -2345 -1 -2453 -19 -2510 -33 -109 -75 -170 -148 -214 -20
-12 -97 -43 -170 -69 l-133 -47 0 -45 0 -45 1215 0 1215 0 3 45 3 45 -148 44
c-81 24 -181 59 -221 78 -84 40 -167 117 -199 185 -52 110 -51 97 -52 1019 l0
859 207 0 c281 1 503 9 644 25 29 3 73 7 98 10 232 21 624 108 765 170 17 7
55 23 85 35 148 60 369 188 480 279 129 105 248 235 324 354 82 128 198 394
221 506 2 9 10 48 19 86 30 136 40 231 40 395 0 106 -11 277 -19 290 -2 3 -6
23 -9 45 -34 230 -152 493 -305 685 -102 128 -276 285 -411 372 -258 166 -657
295 -1060 344 -30 3 -66 8 -80 9 -14 2 -59 7 -100 10 -41 4 -97 10 -125 12
-27 3 -622 7 -1321 10 l-1271 4 -1 -44z m2383 -151 c240 -36 405 -91 545 -181
128 -83 226 -199 304 -358 41 -85 99 -243 110 -300 2 -12 11 -51 19 -87 16
-68 20 -93 37 -230 35 -289 30 -755 -11 -1045 -18 -128 -20 -139 -45 -240 -95
-383 -274 -613 -566 -725 -83 -32 -209 -65 -293 -76 -27 -3 -59 -8 -70 -11
-11 -3 -149 -7 -307 -10 l-287 -5 0 1641 0 1642 262 -5 c144 -2 280 -7 302
-10z"/>
</g>
</svg>
