<?xml version="1.0" standalone="no"?>
<!DOCTYPE svg PUBLIC "-//W3C//DTD SVG 20010904//EN"
 "http://www.w3.org/TR/2001/REC-SVG-20010904/DTD/svg10.dtd">
<svg version="1.0" xmlns="http://www.w3.org/2000/svg"
 width="700.000000pt" height="700.000000pt" viewBox="0 0 700.000000 700.000000"
 preserveAspectRatio="xMidYMid meet">
<metadata>
Created by potrace 1.14, written by Peter Selinger 2001-2017
</metadata>
<g transform="translate(0.000000,700.000000) scale(0.100000,-0.100000)"
fill="#000000" stroke="none">
<path d="M4460 6979 c-201 -42 -409 -176 -539 -349 -14 -19 -34 -44 -43 -54
-10 -11 -18 -26 -18 -33 0 -7 -4 -13 -9 -13 -18 0 -159 -303 -201 -430 -37
-110 -82 -286 -105 -405 -5 -22 -10 -47 -11 -55 -7 -30 -33 -226 -39 -285 -4
-33 -8 -76 -10 -95 -3 -19 -7 -107 -11 -195 -5 -148 -8 -161 -27 -177 -12 -10
-132 -92 -267 -182 -269 -182 -447 -275 -760 -399 -295 -117 -706 -245 -970
-302 -8 -2 -62 -15 -120 -28 -58 -14 -118 -27 -135 -30 -16 -3 -75 -14 -130
-25 -107 -22 -359 -64 -490 -82 -44 -6 -91 -13 -105 -15 -107 -15 -253 -31
-365 -40 -87 -7 -105 -16 -84 -38 8 -8 37 -41 64 -73 117 -137 274 -294 395
-395 83 -70 81 -64 60 -184 -11 -64 -9 -206 4 -265 3 -14 8 -34 10 -45 31
-156 126 -350 245 -500 344 -436 1043 -792 1894 -965 54 -11 102 -22 106 -24
5 -4 6 -228 2 -516 -1 -62 16 -39 -235 -303 -72 -76 -139 -154 -149 -173 -51
-99 -7 -227 97 -281 32 -17 132 -22 174 -11 35 10 71 40 141 114 35 38 97 103
137 145 l73 76 187 -154 c104 -85 204 -161 223 -169 20 -9 59 -15 86 -15 156
0 260 153 197 292 -22 51 -33 61 -202 198 -69 56 -134 110 -145 119 -79 66
-140 116 -143 118 -3 2 -2 315 1 439 l2 60 50 -2 c96 -4 430 -4 450 1 11 2 45
7 75 11 79 10 109 14 165 25 28 5 64 12 80 15 24 4 129 30 370 91 20 5 20 1
17 -308 -1 -172 -4 -322 -7 -333 -2 -11 -47 -65 -100 -120 -299 -313 -300
-314 -299 -400 0 -114 81 -202 195 -213 100 -9 138 18 375 271 l70 75 31 -26
c103 -90 336 -274 367 -291 67 -38 164 -29 233 23 82 61 106 185 53 270 -11
19 -118 114 -238 212 -119 97 -223 183 -231 190 -12 11 -14 75 -12 394 2 281
-1 385 -9 396 -10 11 -8 15 6 20 98 33 423 193 564 277 186 111 311 199 490
345 75 61 272 262 340 347 65 82 168 235 212 315 32 59 109 230 113 252 2 10
7 23 10 28 6 10 40 118 51 165 40 164 43 314 9 485 -20 103 -103 288 -181 406
-118 177 -332 396 -488 499 l-56 38 53 36 c28 20 124 86 212 146 88 59 257
174 375 255 118 81 259 176 312 213 90 61 95 66 70 71 -15 3 -99 17 -187 31
-88 14 -182 29 -210 34 -27 5 -72 13 -98 16 -27 4 -57 8 -66 10 -30 6 -275 46
-306 51 -16 2 -37 6 -45 7 -8 2 -54 9 -102 17 l-88 13 -1 41 c-1 59 -5 95 -24
241 -2 17 -14 77 -30 150 -23 109 -94 298 -146 393 -174 314 -421 496 -764
562 -110 21 -338 21 -445 -1z"/>
</g>
</svg>
